<?xml version="1.0" encoding="UTF-8"?>
<!DOCTYPE svg PUBLIC "-//W3C//DTD SVG 1.1//EN" "http://www.w3.org/Graphics/SVG/1.1/DTD/svg11.dtd">
<!-- Creator: CorelDRAW X8 -->
<svg xmlns="http://www.w3.org/2000/svg" xml:space="preserve" width="89.0692mm" height="89.0692mm" version="1.1" style="shape-rendering:geometricPrecision; text-rendering:geometricPrecision; image-rendering:optimizeQuality; fill-rule:evenodd; clip-rule:evenodd"
viewBox="0 0 8907 8907"
 xmlns:xlink="http://www.w3.org/1999/xlink">
 <defs>
  <style type="text/css">
   <![CDATA[
    .fil0 {fill:#201E1E}
   ]]>
  </style>
 </defs>
 <g id="Capa_x0020_1">
  <metadata id="CorelCorpID_0Corel-Layer"/>
  <g id="_2770126568592">
   <g id="_2770126783008">
    <g id="_2339244626896">
     <path class="fil0" d="M2647 6972c155,13 159,25 106,141 -147,-53 -51,-18 -106,-141zm-1235 35c161,-85 189,-99 141,106 -123,-33 -79,-14 -141,-106zm741 71c-691,0 -628,-692 -62,-724 610,-34 666,724 62,724zm-176 -1129l282 0c-3,155 -24,110 -35,247l-212 0c-11,-137 -31,-93 -35,-247zm423 -141l0 0zm-529 -71l388 0 0 35 -388 0 0 -35zm4163 -1870l-282 0 0 -494 705 0c153,0 250,332 318,459 -292,0 -443,35 -741,35l0 0zm-3634 1941c257,21 50,141 494,141l40 139 736 2c139,0 269,-5 403,-10 68,-3 239,10 373,10l40 -140 1689 -1c-19,232 -63,118 70,317 417,0 201,-29 502,-309 557,-518 1171,-302 1580,309 535,0 334,-225 317,-423 245,-66 157,-295 201,-582l10 -100c0,-5 -3,-15 -3,-20l-4 -404c-15,-240 164,2 -39,-294 -4,-6 -10,-15 -14,-21 -115,-186 -126,-386 -497,-525 -278,-105 -784,-65 -1171,-65 -352,-666 -321,-740 -1481,-741 -360,0 -425,5 -706,71l-70 1023c0,-355 34,-797 -36,-1094 -479,0 -388,-193 -388,1023 0,482 0,964 0,1447l-4446 0 0 388c382,0 86,-3 282,141 132,0 262,2 393,3 204,2 229,34 243,-144 511,0 416,55 708,-104 70,-38 124,-53 210,-73 -22,264 -131,50 -434,343 -465,448 -108,1033 157,1093l135 44c115,47 192,70 352,74 132,4 284,-7 364,-27 110,-29 61,-18 132,-47 205,-83 246,4 419,-319 327,-611 -275,-996 -561,-1020l0 -105 0 0 0 0z"/>
     <path class="fil0" d="M1130 3409l0 1940c0,83 59,141 141,141l2964 0c82,0 141,-58 141,-141l0 -1940c0,-83 -59,-141 -141,-141l-2964 0c-82,0 -141,58 -141,141z"/>
     <path class="fil0" d="M7939 6972c164,13 61,-38 141,70 -170,79 -91,26 -141,-70zm-1164 141c-54,-116 -50,-128 105,-141 -24,103 -7,131 -105,141zm670 -35c-769,0 -532,-706 -106,-706 756,0 630,706 106,706zm-177 -1129l283 0c0,168 -24,146 -36,282 -108,0 -237,63 -247,-282zm-811 670c0,163 161,481 235,541 100,82 139,54 263,90 553,159 586,60 1035,-45 187,-44 337,-424 337,-515 0,-585 -264,-571 -559,-747 -135,-82 -10,-2 -91,-86 -101,-104 1,-85 -373,-85 -186,0 -100,69 -262,162 -120,68 -585,170 -585,685l0 0z"/>
     <path class="fil0" d="M5222 2174c0,174 565,635 565,635 217,0 683,-539 670,-635 -8,-62 -472,-600 -635,-600 -103,0 -256,203 -326,274 -71,70 -274,223 -274,326l0 0z"/>
     <path class="fil0" d="M2012 6725l0 -71c134,-75 212,-51 212,106 -123,69 -212,27 -212,-35zm-141 -71c0,322 494,215 494,36 0,-224 -289,-258 -412,-165 -29,23 -82,107 -82,129l0 0z"/>
     <path class="fil0" d="M7339 6725c0,-300 332,70 106,70 -58,0 -106,-21 -106,-70zm-176 -35c0,84 57,103 105,176 174,0 236,21 341,-83l48 -58c-92,-391 -494,-214 -494,-35l0 0z"/>
    </g>
   </g>
  </g>
 </g>
</svg>
