<?xml version="1.0" encoding="UTF-8"?>
<!DOCTYPE svg PUBLIC "-//W3C//DTD SVG 1.1//EN" "http://www.w3.org/Graphics/SVG/1.1/DTD/svg11.dtd">
<!-- Creator: CorelDRAW X8 -->
<svg xmlns="http://www.w3.org/2000/svg" xml:space="preserve" width="81.135mm" height="88.878mm" version="1.1" style="shape-rendering:geometricPrecision; text-rendering:geometricPrecision; image-rendering:optimizeQuality; fill-rule:evenodd; clip-rule:evenodd"
viewBox="0 0 8114 8888"
 xmlns:xlink="http://www.w3.org/1999/xlink">
 <defs>
  <style type="text/css">
   <![CDATA[
    .fil0 {fill:#201E1E}
   ]]>
  </style>
 </defs>
 <g id="Capa_x0020_1">
  <metadata id="CorelCorpID_0Corel-Layer"/>
  <g id="_2770126312016">
   <path class="fil0" d="M1799 3984c0,385 137,437 468,767 341,342 608,636 968,937 57,48 91,87 143,139 606,612 711,683 1340,53l1112 -1111c334,-334 485,-366 485,-785 0,-263 -805,-963 -1015,-1173 -209,-210 -909,-1014 -1172,-1014 -415,0 -440,139 -768,467l-1093 1094c-142,142 -468,386 -468,626z"/>
   <path class="fil0" d="M600 3808c0,660 30,1199 341,1775 377,700 969,1319 1719,1632 954,398 1991,397 2915,-55 328,-161 868,-529 1057,-812 -177,-119 -301,-286 -494,-388 -220,148 -290,332 -810,601 -737,380 -1729,370 -2483,11 -620,-296 -1062,-780 -1352,-1400 -70,-150 -131,-320 -172,-498 -142,-618 -90,-1179 159,-1749 80,-182 126,-271 234,-437 115,-177 187,-235 311,-395 132,-168 589,-478 796,-579 280,-137 715,-281 1130,-281 0,-684 161,-758 -614,-579 -1048,242 -1896,864 -2373,1825 -178,359 -364,813 -364,1329z"/>
   <path class="fil0" d="M0 4055c0,474 99,926 224,1292 104,301 224,535 373,792 109,187 72,170 179,209 0,-313 36,-399 -82,-624 -1247,-2383 463,-5444 3363,-5444 555,0 1153,147 1541,329 353,165 827,479 1115,755 1115,1068 1453,2934 706,4360 -118,225 -81,311 -81,624 191,-69 485,-811 543,-974 637,-1820 -91,-3640 -1496,-4635 -2627,-1863 -6385,0 -6385,3316z"/>
   <path class="fil0" d="M4163 668c0,710 -98,510 504,625 1917,368 2844,2785 1743,4303 -65,90 -65,58 -95,187 172,116 292,242 458,353 354,-236 741,-1323 741,-1905 0,-881 -141,-1540 -660,-2233 -127,-169 -238,-313 -389,-458 -87,-83 -139,-111 -230,-193 -402,-362 -1215,-705 -1792,-750 -151,-11 -280,-70 -280,71z"/>
   <path class="fil0" d="M4057 7794c-312,0 -719,-71 -960,-133 -616,-159 -1418,-602 -1781,-1041 -94,-113 -140,-231 -293,-272 0,380 -87,366 518,858 285,231 533,362 881,530 787,379 555,-24 1116,648 58,69 111,113 175,177 131,130 176,279 379,327l627 -679c167,-169 88,-193 375,-260 445,-105 989,-377 1337,-638 655,-494 660,-510 660,-893 0,-135 11,-12 -35,-105 -91,60 -159,177 -256,273 -101,100 -179,187 -282,283 -189,175 -440,324 -668,461 -456,274 -1235,464 -1793,464z"/>
  </g>
 </g>
</svg>
