<?xml version="1.0" encoding="UTF-8"?>
<!DOCTYPE svg PUBLIC "-//W3C//DTD SVG 1.1//EN" "http://www.w3.org/Graphics/SVG/1.1/DTD/svg11.dtd">
<!-- Creator: CorelDRAW X8 -->
<svg xmlns="http://www.w3.org/2000/svg" xml:space="preserve" width="87.957mm" height="89.0341mm" version="1.1" style="shape-rendering:geometricPrecision; text-rendering:geometricPrecision; image-rendering:optimizeQuality; fill-rule:evenodd; clip-rule:evenodd"
viewBox="0 0 8796 8903"
 xmlns:xlink="http://www.w3.org/1999/xlink">
 <defs>
  <style type="text/css">
   <![CDATA[
    .fil0 {fill:#201E1E}
   ]]>
  </style>
 </defs>
 <g id="Capa_x0020_1">
  <metadata id="CorelCorpID_0Corel-Layer"/>
  <g id="_2770126864960">
   <g id="_2339244617040">
    <path class="fil0" d="M2787 3674l-917 0c109,-162 1565,-1571 1844,-1860 162,-168 422,-579 666,-599 183,-15 486,358 674,545l1234 1270c165,165 516,479 627,644l-918 0c-26,-316 -157,-317 -317,-317 -110,0 -469,408 -556,502 -99,106 -135,173 -247,283 -393,388 -325,239 108,757l418 428c72,92 164,252 312,252 214,0 282,-132 282,-352l918 0c-126,187 -994,972 -1351,1400l-793 796c-440,441 -418,339 -1040,-283l-1235 -1270c-164,-164 -516,-479 -626,-643l952 0c0,402 255,381 394,289 0,0 947,-983 947,-1066 0,-84 -182,-229 -312,-393l-710 -706c-202,-81 -349,87 -354,323l0 0zm-2187 776c0,146 44,259 115,344 746,898 2334,2255 3070,3138 454,545 801,419 1198,20l2840 -2875c782,-780 150,-996 -228,-1448 -373,-446 -1645,-1678 -2136,-2168 -132,-133 -690,-746 -852,-806 -476,-178 -760,284 -1264,788l-1659 1657c-97,101 -125,163 -228,266 -319,317 -856,744 -856,1084l0 0z"/>
    <path class="fil0" d="M282 4486c0,-264 287,-438 433,-591l493 -529c616,-616 1491,-1448 2064,-2099 153,-174 913,-979 1103,-979 235,0 453,295 591,432 169,169 356,336 511,512l1005 1040c240,239 2020,1944 2020,2108 0,343 -175,405 -450,679l-1023 1023c-184,184 -310,346 -494,529 -153,154 -1907,2002 -2090,2002 -273,0 -361,-167 -608,-414l-2576 -2611c-178,-179 -979,-897 -979,-1102l0 0zm-282 -36c0,347 240,480 403,691l3293 3340c504,505 799,619 1394,1l2733 -2770c112,-112 153,-156 251,-279 427,-536 1202,-794 313,-1679l-1658 -1658c-190,-191 -356,-356 -546,-547l-1094 -1129c-810,-810 -1005,-353 -1923,564l-2205 2205c-278,279 -961,858 -961,1261z"/>
   </g>
  </g>
 </g>
</svg>
