<?xml version="1.0" encoding="UTF-8"?>
<!DOCTYPE svg PUBLIC "-//W3C//DTD SVG 1.1//EN" "http://www.w3.org/Graphics/SVG/1.1/DTD/svg11.dtd">
<!-- Creator: CorelDRAW X8 -->
<svg xmlns="http://www.w3.org/2000/svg" xml:space="preserve" width="88.8986mm" height="64.9088mm" version="1.1" style="shape-rendering:geometricPrecision; text-rendering:geometricPrecision; image-rendering:optimizeQuality; fill-rule:evenodd; clip-rule:evenodd"
viewBox="0 0 8890 6491"
 xmlns:xlink="http://www.w3.org/1999/xlink">
 <defs>
  <style type="text/css">
   <![CDATA[
    .fil0 {fill:#201E1E}
   ]]>
  </style>
 </defs>
 <g id="Capa_x0020_1">
  <metadata id="CorelCorpID_0Corel-Layer"/>
  <g id="_2769926932512">
   <g id="_2374466745552">
    <path class="fil0" d="M5609 1799c0,-314 -89,-246 776,-246 153,0 250,331 318,458 -204,0 -268,37 -493,36 -189,-1 -377,-1 -566,-1 -9,-110 -35,-125 -35,-247l0 0zm-1164 2435l1623 0c-20,232 -63,118 70,317l282 0c63,-233 494,-600 847,-600 915,0 895,600 1094,600 466,0 291,-234 247,-423 327,-88 193,-653 245,-1057l-13 -135c7,-127 45,-3 50,-219 -151,-41 -77,-25 -143,-175 -288,-652 -1047,-531 -1727,-531 -25,-106 -144,-292 -204,-395 -106,-181 -114,-228 -351,-284 -273,-65 -784,-97 -1138,-97 -105,199 -154,474 -234,719l-648 2280 0 0z"/>
    <path class="fil0" d="M1023 2893c0,237 341,464 573,697 752,751 584,774 1323,35 143,-143 551,-484 589,-681 40,-204 -311,-470 -536,-695 -832,-832 -597,-827 -1693,265 -101,101 -256,200 -256,379z"/>
    <path class="fil0" d="M3069 6386c183,15 291,91 459,105l446 -1599c94,-326 1337,-4589 1353,-4786 -183,-15 -291,-92 -459,-106 -63,272 -144,523 -224,799 -167,579 -1570,5381 -1575,5587z"/>
    <path class="fil0" d="M353 2823c0,831 386,1439 1045,1776 522,267 1171,271 1697,13 167,-82 144,-60 200,-259 33,-122 82,-255 92,-366 -113,75 -198,164 -329,236 -445,243 -918,287 -1376,92 -1551,-662 -1041,-2939 505,-2939l0 -388c-958,0 -1834,875 -1834,1835l0 0z"/>
    <path class="fil0" d="M8043 5363c-47,26 -39,19 -106,35 -20,-45 -74,-88 10,-118 95,-34 77,29 96,83zm-1411 0c183,-273 256,122 0,0zm212 -353c0,-88 91,-224 153,-270 472,-349 1164,230 675,569 -298,207 -828,39 -828,-299zm353 -776l282 0c0,168 -24,146 -35,282 -109,0 -238,63 -247,-282zm-142 -36c-242,6 -935,380 -597,1024 30,58 11,15 32,61 2,4 6,14 8,18 55,126 101,194 224,224 5,1 16,2 21,3 323,70 560,207 1024,49 68,-23 69,-29 144,-46 120,-26 2,58 143,-51 23,-18 84,-90 94,-108 471,-796 -143,-996 -451,-1180 -235,-142 132,-135 -536,-135 -100,0 -106,41 -106,141l0 0z"/>
    <path class="fil0" d="M0 2717c0,434 113,1193 459,1446 0,-647 -247,-401 -247,-1376 0,-556 287,-1047 572,-1332 1266,-1262 3033,-290 3202,344l71 0c20,-241 80,-186 -221,-485 -1634,-1620 -3836,-189 -3836,1403l0 0z"/>
    <path class="fil0" d="M2328 1341c1234,103 1332,1090 1482,1199 93,-400 314,-570 -293,-1083 -268,-227 -710,-469 -1189,-469l0 353z"/>
    <path class="fil0" d="M2258 5574c173,-116 247,-286 413,-433 253,-226 411,21 504,-378 -211,17 -925,455 -1929,-82 -124,-67 -231,-146 -334,-230 -213,-172 -181,-241 -312,-288 0,242 -40,245 266,474 506,380 839,365 1014,539 148,146 202,281 378,398l0 0z"/>
    <path class="fil0" d="M7302 4939l142 0c-4,181 31,101 -71,177 -104,-76 -66,5 -71,-177zm-211 35c0,79 153,334 494,106l0 -211c-379,-254 -494,58 -494,105z"/>
   </g>
  </g>
 </g>
</svg>
