<?xml version="1.0" encoding="UTF-8"?>
<!DOCTYPE svg PUBLIC "-//W3C//DTD SVG 1.1//EN" "http://www.w3.org/Graphics/SVG/1.1/DTD/svg11.dtd">
<!-- Creator: CorelDRAW X8 -->
<svg xmlns="http://www.w3.org/2000/svg" xml:space="preserve" width="19.3886mm" height="14.1392mm" version="1.1" style="shape-rendering:geometricPrecision; text-rendering:geometricPrecision; image-rendering:optimizeQuality; fill-rule:evenodd; clip-rule:evenodd"
viewBox="0 0 1127 822"
 xmlns:xlink="http://www.w3.org/1999/xlink">
 <defs>
  <style type="text/css">
   <![CDATA[
    .fil0 {fill:#201E1E}
   ]]>
  </style>
 </defs>
 <g id="Capa_x0020_1">
  <metadata id="CorelCorpID_0Corel-Layer"/>
  <g id="_3147942130992">
   <path class="fil0" d="M566 822c28,0 32,-18 45,-33 59,-65 43,-12 43,-208 0,-211 -36,-129 164,-329l250 -247c-64,0 -128,1 -192,0 -54,-1 -49,12 -117,80 -20,20 -175,184 -198,191 -20,-14 -201,-199 -240,-238 -24,-24 -20,-34 -65,-33 -66,0 -131,0 -197,0 15,22 59,61 80,82l331 329c11,27 -6,303 5,330 3,7 33,35 40,43 14,13 26,33 51,33z"/>
   <path class="fil0" d="M718 684l206 -218c20,-19 30,-35 49,-54l154 -166c-71,0 -141,0 -212,0 -42,-1 -30,-2 -67,36l-106 105c-33,32 -24,27 -24,85 1,71 0,141 0,212z"/>
   <path class="fil0" d="M408 684c0,-71 0,-141 0,-212 1,-53 9,-54 -20,-82l-106 -106c-10,-9 -18,-19 -27,-27 -16,-15 -14,-11 -43,-11 -71,0 -141,0 -212,0l356 383c23,23 36,44 52,55z"/>
   <path class="fil0" d="M566 187l183 -186 -375 -1c18,27 163,167 192,187z"/>
  </g>
 </g>
</svg>
