<?xml version="1.0" encoding="UTF-8"?>
<!DOCTYPE svg PUBLIC "-//W3C//DTD SVG 1.1//EN" "http://www.w3.org/Graphics/SVG/1.1/DTD/svg11.dtd">
<!-- Creator: CorelDRAW X8 -->
<svg xmlns="http://www.w3.org/2000/svg" xml:space="preserve" width="12.7418mm" height="13.0464mm" version="1.1" style="shape-rendering:geometricPrecision; text-rendering:geometricPrecision; image-rendering:optimizeQuality; fill-rule:evenodd; clip-rule:evenodd"
viewBox="0 0 810 829"
 xmlns:xlink="http://www.w3.org/1999/xlink">
 <defs>
  <style type="text/css">
   <![CDATA[
    .fil0 {fill:#201E1E}
   ]]>
  </style>
 </defs>
 <g id="Capa_x0020_1">
  <metadata id="CorelCorpID_0Corel-Layer"/>
  <g id="_3147940627184">
   <path class="fil0" d="M2 33c0,113 -16,155 45,202 26,20 45,39 70,60 92,78 90,58 89,163 0,54 -13,212 10,244 10,14 117,119 130,127l0 -269c3,-39 27,-51 27,-64l0 -173c0,-41 -40,-74 -70,-96l-200 -171c-17,-16 -101,-102 -101,-23z"/>
   <path class="fil0" d="M438 318l0 178c0,16 24,23 27,59l0 274c28,-19 96,-92 125,-122 24,-23 15,-46 15,-109 0,-54 -11,-200 16,-237 11,-16 52,-44 69,-60 137,-129 119,-60 119,-268 0,-85 -97,21 -118,37l-179 155c-25,23 -74,50 -74,93z"/>
  </g>
 </g>
</svg>
