<?xml version="1.0" encoding="UTF-8"?>
<!DOCTYPE svg PUBLIC "-//W3C//DTD SVG 1.1//EN" "http://www.w3.org/Graphics/SVG/1.1/DTD/svg11.dtd">
<!-- Creator: CorelDRAW X8 -->
<svg xmlns="http://www.w3.org/2000/svg" xml:space="preserve" width="20.7433mm" height="15.0146mm" version="1.1" style="shape-rendering:geometricPrecision; text-rendering:geometricPrecision; image-rendering:optimizeQuality; fill-rule:evenodd; clip-rule:evenodd"
viewBox="0 0 830 601"
 xmlns:xlink="http://www.w3.org/1999/xlink">
 <defs>
  <style type="text/css">
   <![CDATA[
    .fil0 {fill:#201E1E}
   ]]>
  </style>
 </defs>
 <g id="Capa_x0020_1">
  <metadata id="CorelCorpID_0Corel-Layer"/>
  <g id="_3147942145552">
   <path class="fil0" d="M274 312c0,24 -51,58 -64,78 4,16 19,22 31,33 12,10 20,22 33,31l76 -74c14,10 49,57 67,57 17,0 49,-44 64,-54l77 75 46 -50c7,-8 10,-10 16,-18 -30,-45 -86,-63 -50,-101 15,-16 31,-30 46,-45 23,-26 -17,-8 33,-58 22,-22 168,-162 181,-186 -32,0 -64,1 -95,0 -34,0 -22,-3 -62,37 -33,33 -65,64 -98,98 -17,17 -29,32 -46,49l-97 99c-5,12 -2,78 -2,97l-13 10c-14,-8 -17,-10 -18,-31 -3,-91 16,-64 -36,-116l-225 -228c-14,-15 -10,-15 -36,-15 -34,0 -68,0 -102,0 16,24 138,135 165,167 7,9 8,12 17,20 7,7 13,12 19,19 17,18 -1,19 13,34 3,3 7,7 10,10 11,11 50,51 50,62z"/>
   <path class="fil0" d="M294 477l122 124 91 -94c10,-10 24,-18 28,-33l-53 -55c-19,13 -47,55 -65,55 -27,0 -46,-41 -65,-54l-58 57z"/>
   <path class="fil0" d="M324 138c4,14 14,19 22,27l71 72c14,-10 34,-32 48,-46 11,-11 43,-39 46,-52l-94 -95 -93 94z"/>
   <path class="fil0" d="M599 308c0,18 32,51 48,61 11,-3 35,-28 43,-38 8,-10 9,-12 19,-22 25,-24 16,-42 16,-109 0,-27 -28,5 -32,9 -13,14 -94,89 -94,99z"/>
   <path class="fil0" d="M108 285c0,18 23,34 33,45 14,13 27,30 42,39 11,-7 51,-42 51,-57 0,-9 -7,-12 -13,-18l-44 -47c-11,-11 -20,-20 -31,-31 -20,-21 -19,-26 -38,-26l0 95z"/>
  </g>
 </g>
</svg>
