<?xml version="1.0" encoding="UTF-8"?>
<!DOCTYPE svg PUBLIC "-//W3C//DTD SVG 1.1//EN" "http://www.w3.org/Graphics/SVG/1.1/DTD/svg11.dtd">
<!-- Creator: CorelDRAW X8 -->
<svg xmlns="http://www.w3.org/2000/svg" xml:space="preserve" width="19.2193mm" height="15.9566mm" version="1.1" style="shape-rendering:geometricPrecision; text-rendering:geometricPrecision; image-rendering:optimizeQuality; fill-rule:evenodd; clip-rule:evenodd"
viewBox="0 0 1803 1497"
 xmlns:xlink="http://www.w3.org/1999/xlink">
 <defs>
  <style type="text/css">
   <![CDATA[
    .fil0 {fill:#201E1E}
   ]]>
  </style>
 </defs>
 <g id="Capa_x0020_1">
  <metadata id="CorelCorpID_0Corel-Layer"/>
  <g id="_3147937423184">
   <path class="fil0" d="M1064 433l-157 -161 -167 162 -396 -401c-20,-20 -14,-20 -50,-22 -91,-5 -201,1 -294,1 29,44 136,139 181,184 40,41 168,149 168,205 0,42 -39,4 46,89l159 159c35,34 38,56 41,117 3,39 20,54 67,93l123 115c58,46 71,71 128,110l252 -240c35,-34 36,-21 44,-76 17,-129 72,-133 151,-222 22,-26 30,-39 56,-64 34,-34 40,-24 46,-81 7,-72 59,-103 101,-145 28,-29 231,-218 240,-252 -81,0 -212,-8 -286,-1 -41,5 -125,105 -157,138l-296 292z"/>
   <path class="fil0" d="M1239 1243c34,-10 173,-162 208,-197 34,-34 47,-28 47,-89 0,-157 -15,-112 140,-264 72,-71 50,-101 50,-284 0,-22 -4,-22 -8,-40 -48,4 -66,38 -94,66l-242 250c-49,47 -38,32 -38,121 1,55 0,111 1,167 0,97 -2,69 -46,121 -28,31 -18,92 -18,149z"/>
   <path class="fil0" d="M905 1497c39,0 57,-28 78,-50 215,-218 177,-112 177,-451 0,-92 -167,199 -255,199 -65,0 -226,-227 -252,-217 -24,10 -2,115 -2,137 6,197 -47,108 161,316 24,24 51,66 93,66z"/>
   <path class="fil0" d="M143 401l0 230c0,43 70,98 113,141 103,103 32,82 54,208 7,37 177,184 216,229 23,27 6,25 38,34 0,-47 10,-117 -11,-148 -32,-51 -37,8 -37,-130 0,-53 0,-106 0,-159 1,-94 5,-71 -45,-121l-203 -203c-17,-19 -20,-28 -40,-48 -10,-10 -85,-97 -85,-33z"/>
  </g>
 </g>
</svg>
