<?xml version="1.0" encoding="UTF-8"?>
<!DOCTYPE svg PUBLIC "-//W3C//DTD SVG 1.1//EN" "http://www.w3.org/Graphics/SVG/1.1/DTD/svg11.dtd">
<!-- Creator: CorelDRAW X8 -->
<svg xmlns="http://www.w3.org/2000/svg" xml:space="preserve" width="11.4092mm" height="10.3293mm" version="1.1" style="shape-rendering:geometricPrecision; text-rendering:geometricPrecision; image-rendering:optimizeQuality; fill-rule:evenodd; clip-rule:evenodd"
viewBox="0 0 1077 975"
 xmlns:xlink="http://www.w3.org/1999/xlink">
 <defs>
  <style type="text/css">
   <![CDATA[
    .fil0 {fill:#201E1E}
   ]]>
  </style>
 </defs>
 <g id="Capa_x0020_1">
  <metadata id="CorelCorpID_0Corel-Layer"/>
  <path class="fil0" d="M3 40c0,271 -35,278 133,403 54,40 28,38 38,113 28,193 -47,54 187,277l170 142 334 -289c29,-32 17,-121 17,-198 36,-20 73,-58 107,-86 113,-95 85,-81 85,-346 0,-23 -5,-31 -19,-45 -1,-1 -3,-3 -4,-4l-9 -7c-44,10 -131,94 -178,133l-170 142c-43,33 -71,63 -116,93 0,102 15,238 -24,295 -31,-7 -33,-4 -42,-37 -9,-31 -5,-216 -5,-258 -56,-13 -182,-146 -232,-184 -59,-45 -183,-171 -240,-184 -14,9 -32,17 -32,40z"/>
 </g>
</svg>
