<?xml version="1.0" encoding="UTF-8"?>
<!DOCTYPE svg PUBLIC "-//W3C//DTD SVG 1.1//EN" "http://www.w3.org/Graphics/SVG/1.1/DTD/svg11.dtd">
<!-- Creator: CorelDRAW X8 -->
<svg xmlns="http://www.w3.org/2000/svg" xml:space="preserve" width="14.348mm" height="14.3997mm" version="1.1" style="shape-rendering:geometricPrecision; text-rendering:geometricPrecision; image-rendering:optimizeQuality; fill-rule:evenodd; clip-rule:evenodd"
viewBox="0 0 1039 1043"
 xmlns:xlink="http://www.w3.org/1999/xlink">
 <defs>
  <style type="text/css">
   <![CDATA[
    .fil0 {fill:#201E1E}
   ]]>
  </style>
 </defs>
 <g id="Capa_x0020_1">
  <metadata id="CorelCorpID_0Corel-Layer"/>
  <g id="_3112811360848">
   <path class="fil0" d="M374 387l0 503c0,23 122,124 141,153 14,-9 147,-135 147,-153l0 -497c0,-46 -124,-106 -142,-107 -35,-1 -146,76 -146,101z"/>
   <path class="fil0" d="M0 37c0,274 4,156 109,284 41,49 9,305 20,366 5,24 101,110 124,134 15,15 48,56 66,62 0,-194 4,-394 0,-589 -2,-91 -89,-126 -167,-200 -16,-15 -25,-20 -40,-34 -16,-14 -25,-20 -40,-34 -35,-31 -72,-42 -72,11z"/>
   <path class="fil0" d="M1036 191c0,-71 15,-191 -24,-191 -32,0 -187,147 -229,183 -27,22 -56,36 -59,81l0 546c0,61 -17,95 26,51l131 -139c44,-42 33,-29 33,-108 0,-55 -7,-227 2,-268 13,-61 120,-88 120,-155z"/>
  </g>
 </g>
</svg>
