<?xml version="1.0" encoding="UTF-8"?>
<!DOCTYPE svg PUBLIC "-//W3C//DTD SVG 1.1//EN" "http://www.w3.org/Graphics/SVG/1.1/DTD/svg11.dtd">
<!-- Creator: CorelDRAW X8 -->
<svg xmlns="http://www.w3.org/2000/svg" xml:space="preserve" width="20.828mm" height="17.1873mm" version="1.1" style="shape-rendering:geometricPrecision; text-rendering:geometricPrecision; image-rendering:optimizeQuality; fill-rule:evenodd; clip-rule:evenodd"
viewBox="0 0 1779 1468"
 xmlns:xlink="http://www.w3.org/1999/xlink">
 <defs>
  <style type="text/css">
   <![CDATA[
    .fil0 {fill:#201E1E}
   ]]>
  </style>
 </defs>
 <g id="Capa_x0020_1">
  <metadata id="CorelCorpID_0Corel-Layer"/>
  <g id="_3148030080912">
   <path class="fil0" d="M470 1280c42,-11 198,-218 282,-275 84,56 116,191 214,62 27,-36 33,-38 68,-62 20,30 161,164 204,208 24,23 45,58 78,67 0,-49 7,-232 -2,-266 -12,-48 -121,-111 -121,-153 0,-61 135,-135 140,-173 7,-57 -16,-27 54,-97l355 -361c14,-17 25,-23 37,-42 -70,0 -140,0 -210,0 -66,-1 -51,4 -132,85l-318 326c-35,38 -71,71 -108,108 -81,81 -86,66 -86,132 1,54 18,181 -35,181 -48,0 -29,-134 -29,-182 0,-49 -5,-52 -31,-77 -20,-20 -35,-34 -54,-54l-427 -434c-113,-113 -38,-85 -349,-85 21,32 80,83 110,114 59,59 322,313 334,346 25,69 -37,2 93,131 59,59 73,83 22,134 -80,82 -90,66 -89,135 0,78 0,155 0,232z"/>
   <path class="fil0" d="M846 665c0,-82 0,-164 0,-246 1,-94 15,-61 -88,-164 -53,-52 -204,-223 -252,-255 0,78 -4,170 0,246 1,31 0,25 16,42 10,11 21,20 33,32 24,23 42,42 65,65 123,123 -20,74 120,191 44,37 81,83 106,89z"/>
   <path class="fil0" d="M926 665c24,-6 109,-91 132,-114 36,-35 37,-20 42,-80 3,-50 20,-54 48,-82 158,-156 118,-70 118,-389 -64,42 -128,131 -183,186l-127 127c-34,33 -31,36 -30,99 0,84 0,169 0,253z"/>
   <path class="fil0" d="M635 1206l61 72c22,24 42,42 65,65 27,27 106,117 136,125 11,-8 44,-47 59,-63l194 -197 -121 -125c-21,30 -95,118 -139,118 -42,0 -50,-29 -71,-53 -21,-23 -43,-38 -60,-63l-124 121z"/>
   <path class="fil0" d="M130 506l0 196c0,40 226,230 261,282 20,-14 108,-90 108,-123 0,-41 -54,-79 -78,-103 -41,-42 -250,-264 -284,-273 -5,8 -7,7 -7,21z"/>
   <path class="fil0" d="M1280 861c0,16 98,115 109,123l204 -208c78,-79 56,-64 56,-284 -38,1 -36,9 -56,30l-94 94c-21,21 -26,31 -44,51 -27,31 -60,60 -90,91 -20,20 -85,73 -85,103z"/>
  </g>
 </g>
</svg>
